<svg xmlns="http://www.w3.org/2000/svg" width="13" height="13" viewBox="0 0 13 13">
  <path fill="#9AA7B0" d="M10.5 1H2.5C1.67 1 1 1.67 1 2.5v8C1 11.33 1.67 12 2.5 12h8c.83 0 1.5-.67 1.5-1.5v-8c0-.83-.67-1.5-1.5-1.5zM2 2.5C2 2.22 2.22 2 2.5 2h8c.28 0 .5.22 .5.5v8c0 .28-.22.5-.5.5h-8A.5.5 0 0 1 2 10.5v-8z"/>
  <rect fill="#9AA7B0" x="3" y="4" width="7" height="1" rx="0.5"/>
  <rect fill="#9AA7B0" x="3" y="6.5" width="7" height="1" rx="0.5"/>
  <rect fill="#9AA7B0" x="3" y="9" width="4" height="1" rx="0.5"/>
</svg>
